<?xml version="1.0" standalone="no"?><!DOCTYPE svg PUBLIC "-//W3C//DTD SVG 1.1//EN" "http://www.w3.org/Graphics/SVG/1.1/DTD/svg11.dtd"><svg class="icon" width="200px" height="200.00px" viewBox="0 0 1024 1024" version="1.1" xmlns="http://www.w3.org/2000/svg"><path d="M939.908551 154.339556A284.131556 284.131556 0 0 0 738.095218 71.111111a287.288889 287.288889 0 0 0-193.422222 74.666667l-32.711112 29.525333-32.540444-29.44A288.256 288.256 0 0 0 285.856996 71.111111a285.582222 285.582222 0 0 0-201.614223 488.106667l387.128889 376.604444a57.571556 57.571556 0 0 0 81.009778 0.199111l387.527111-376.718222a285.895111 285.895111 0 0 0 0-404.963555zM302.127218 219.022222a22.357333 22.357333 0 0 1-24.689778 19.626667 106.723556 106.723556 0 0 0-76.202667 31.004444A126.833778 126.833778 0 0 0 165.167218 355.555556a22.755556 22.755556 0 0 1-22.414222 22.129777H142.411662a22.158222 22.158222 0 0 1-21.816889-22.755555A172.743111 172.743111 0 0 1 169.604551 238.08a150.044444 150.044444 0 0 1 112.981333-43.889778 22.328889 22.328889 0 0 1 19.541334 24.832z" fill="#d81e06" /></svg>